<svg xmlns="http://www.w3.org/2000/svg" width="38.044" height="45.924" viewBox="0 0 38.044 45.924"><defs><style>.a{fill:#16171b;}.b{fill:#fff;}</style></defs><path class="a" d="M35.473,34.473,22.022,47.924,8.571,34.473a19.022,19.022,0,1,1,26.9,0Z" transform="translate(-3 -2)"/><g transform="translate(4.91 3.031)"><path class="b" d="M20.79,10.989A3.545,3.545,0,0,0,20.9,9.9a1.068,1.068,0,0,0-.433-.783,2.877,2.877,0,0,0-1.195-.466,11.623,11.623,0,0,0-2.156-.159H4.3l-1.922,9.44a14.091,14.091,0,0,1,2.089-1.02,19.1,19.1,0,0,1,2.594-.622l1.27-5.48H14.6c1.278-.017,1.6.251,1.482.753l-.064.277c-.119.5-.3,1.768-2.562,2.343l-.878.176-4.3.184-.288,1.582a15.314,15.314,0,0,1,6.621,1.081c.494.295,1.01.6,1.533.909a15.206,15.206,0,0,1,3.731-.732,6.351,6.351,0,0,0-1.1,2.019.725.725,0,0,1-.082.189,34.17,34.17,0,0,0,4.412,2.248,9.082,9.082,0,0,0,5.052-.32L17.072,14.952c.9-.11,2.957-.767,3.656-3.726Z" transform="translate(-1.111)"/></g></svg>