<svg height="150" viewBox="0 0 480 150" width="480" xmlns="http://www.w3.org/2000/svg"><g fill="#ff6400"><path d="m162.1547 52.9937a30.0332 30.0332 0 0 0 .9118-9.2282 9.0443 9.0443 0 0 0 -3.6665-6.6306q-3.3461-2.5968-10.117-3.9424a98.4029 98.4029 0 0 0 -18.2566-1.3431h-108.4964l-16.2783 79.9462a119.3269 119.3269 0 0 1 17.6891-8.6394c8.0722-2.9289 21.9662-5.2644 21.9662-5.2644l10.76-46.4091h53.0608c10.819-.1415 13.5541 2.1274 12.55 6.3768l-.5458 2.3476c-1.0058 4.2542-2.56 14.9741-21.7028 19.8468l-7.4347 1.4876-36.3882 1.5585-2.4363 13.4s30.5962-2.4455 56.0782 9.154c4.18 2.4945 8.5484 5.0857 12.9846 7.6949 8.7872-4.3383 31.5966-6.2031 31.5966-6.2031s-6.8836 8.3011-9.2793 17.1033a6.1171 6.1171 0 0 1 -.6963 1.6047c16.289 9.2324 30.8338 16.9459 37.366 19.0349 19.0409 6.09 42.7881-2.7066 42.7881-2.7066l-93.9389-55.6291c7.6451-.93 25.047-6.4991 30.964-31.5587zm121.6808 4.8663-5.3417 22.6526q-1.1463 6.04-15.2041 6.0409h-47.3187q-13.4661 0-12.3166-6.0409l5.3407-22.6526q1.5069-6.3741 15.17-6.3768h47.3171q13.8576 0 12.3529 6.3768m40.0749-4.8663q5.1017-21.1437-32.513-21.1443h-78.2056q-37.0252 0-42.1272 21.1443l-7.4853 32.3841q-4.9056 21.1442 32.1172 21.144h78.2059q37.6148 0 42.5222-21.144zm153.9909-21.1443s-36.2632-5.7429-52.4474 2.2623c-10.0362 4.964-56.7129 29.1174-56.7129 29.1174l14.2508-60.4415s-39.0263 8.1424-43.1579 22.9713-20 80.7629-20 80.7629h38.8065l7.6144-33.0577 49.1532 33.0421h51.9192l-58.0628-38.2434z"/><path d="m27.3743 113.968a3.48 3.48 0 1 0 -3.48-3.48 3.4806 3.4806 0 0 0 3.48 3.48"/><path d="m104.5722 127.9869c-1.122 5.6132-.6495 11.7359 5.3449 11.4806 2.3329-.113 3.3665-.6231 4.37-1.6156l1.0928 1.4461h3.4549l2.0081-12.02c-.7086-.0565-1.3878-.0565-2.0081-.0565a14.6033 14.6033 0 0 0 -5.2858.68l-.4725 2.92h2.3335l-.5314 2.9481a4.4993 4.4993 0 0 1 -3.16 1.389c-2.8054 0-3.0415-1.6437-2.2737-6.2644.8858-5.6414 2.2442-6.5492 4.7246-6.5492a57.6226 57.6226 0 0 1 7.0284.5677l.5906-3.5441a25.09 25.09 0 0 0 -8.2985-1.0486c-5.8763 0-7.6186 3.0616-8.9181 9.6673m-23.5382 11.3107h4.8725l1.9784-12.048 5.4335 12.0483h4.8135l3.4255-20.7519h-4.843l-2.0078 12.2753-5.3747-12.2753h-4.8725zm-10.2314 0h4.842l3.4263-20.7519h-4.8429zm-21.2705 0h4.843l1.2992-7.938h6.3492l-1.3 7.9377h4.8429l3.4255-20.7519h-4.8422l-1.4176 8.6189h-6.3488l1.417-8.6186h-4.843zm-19.0228-.6807c2.3623.7937 4.3112.9078 8.0911.9078 2.776 0 6.8512-.2271 7.1759-5.2731l.118-1.8427c.3251-2.2679-.2067-5.7267-4.4885-5.7267h-2.6873c-1.5651 0-2.0376-.283-1.8012-1.7008l.1181-.7084c.2658-1.5879 1.063-1.7014 2.8053-1.6732 1.4765 0 5.1383.1418 6.91.2842l.59-3.6294a26.0506 26.0506 0 0 0 -8.3275-.8784c-3.2776.0283-6.1422.68-6.792 4.8761l-.2953 2.2674c-.2361 1.5308-.3839 5.812 5.02 5.812h2.5693c1.5353 0 1.6831.623 1.5059 1.6438l-.118.8218c-.2067 1.2479-1.24 1.5032-2.51 1.5032-2.7462 0-6.1127-.1705-7.2939-.3117zm-10.3241.6807h4.843l3.4255-20.7519h-4.8427zm-18.2845 0h4.843l1.3287-8.0794 8.0029-.2554.62-3.8553-7.8845-.2835.3839-2.3533c.118-.7648.2953-1.5867 1.8011-1.5867h7.7962l.6494-3.8844c-2.5689-.34-9.0656-.4542-9.0656-.4542-2.569-.0283-5.2269.9925-5.8469 4.763z"/><path d="m435.6075 135.0588c-.62 3.9124 2.4807 4.7066 4.6069 4.6207 0 0 6.5847-.1976 8.9476-.4818l.65-3.8553h-7.531c-.8555 0-1.83.0282-1.5939-1.4737l.4129-2.4387 7.9436-.2553.6495-3.8265-7.8548-.3117.3545-2.268c.1178-.7655.2655-1.5873 1.8012-1.5873h7.796l.65-3.8842c-2.54-.34-9.0666-.4536-9.0666-.4536-2.5095-.0282-5.1674.5672-5.7874 4.3089zm-17.9745-6.548c-1.0634 6.4351.2067 11.197 5.67 11.2546 3.75.0565 5.6991-.1141 7.7959-.8513l.5905-3.6282c-1.0333.0847-3.75.2836-6.408.2554-3.1007-.0565-3.6029-1.6726-2.8051-6.3221 1.0628-6.4916 2.6867-6.3787 4.9313-6.3787a41.9889 41.9889 0 0 1 6.2308.4819l.62-3.6282a19.7409 19.7409 0 0 0 -7.5-1.0772c-5.877 0-8.0326 3.2881-9.1249 9.8938m-23.01 11.084h4.8724l1.9785-12.0483 5.4335 12.0483h4.8135l3.4258-20.7514h-4.843l-2.0084 12.2749-5.3742-12.2749h-4.8724zm-22.7057 0h5.3746l2.0373-4.1677h6.3492l.7678 4.1677h4.9614l-3.3963-20.7514h-5.6118zm9.2726-8.193 3.13-6.6622.9744 6.6622zm-34.8219 8.193h4.873l3.3074-12.7289.7678 12.7289h5.5808l4.9024-12.7289-.8273 12.7289h4.7547l1.2695-20.7514h-6.8214l-4.9313 13.04-.6795-13.04h-6.6746zm-19.3359 0h4.843l1.3-7.9942 2.3329.1983 2.3918 7.7959h5.4924l-3.0412-8.0224c1.1223-.1706 3.5729-.5953 4.3407-5.6414s-1.6239-7.0876-5.138-7.0876h-9.0953zm6.7625-11.5376.8562-5.1884h3.6912c1.3584 0 1.7129.6524 1.4768 2.5233-.2656 1.8709-.8561 2.6651-2.3918 2.6651zm-27.2585.7654c-1.5651 9.44 1.9784 10.8852 7.1758 10.8852 5.2564 0 8.9477-.6513 10.4238-9.808 1.5651-9.6385-2.0079-11.1982-7.1164-11.1982-5.02 0-8.8887.3966-10.4832 10.121m4.843.5383c.9745-5.9244 2.0962-6.435 5.02-6.435s3.8391.7083 2.894 6.435c-.8266 5.0749-2.0373 6.1239-4.99 6.1239-3.2484 0-3.7507-1.049-2.9234-6.1239m-24 10.2339h4.843l1.3289-8.0794 8.0025-.2548.62-3.8559-7.8842-.2835.3839-2.3527c.1178-.7655.2949-1.5873 1.8012-1.5873h7.7945l.65-3.8842c-2.57-.34-9.0659-.4536-9.0659-.4536-2.569-.0282-5.2269.9919-5.8469 4.7625zm-19.9205 0h4.843l1.3-7.9942 2.3329.1983 2.3917 7.7959h5.4925l-3.0412-8.0224c1.1223-.1706 3.5729-.5953 4.3407-5.6414s-1.6239-7.0876-5.138-7.0876h-9.0954zm6.7625-11.5376.8561-5.1884h3.6913c1.3584 0 1.7129.6524 1.4768 2.5233-.2656 1.8709-.8562 2.6651-2.3918 2.6651zm-24.767 7.0016c-.62 3.9124 2.4806 4.7066 4.6069 4.6207 0 0 6.5846-.1976 8.9475-.4818l.6495-3.8553h-7.53c-.8561 0-1.8306.0282-1.5945-1.4737l.4133-2.4387 7.9437-.2553.6495-3.8265-7.8548-.3117.3545-2.268c.1177-.7655.2655-1.5873 1.8011-1.5873h7.7959l.6495-3.8842c-2.54-.34-9.0654-.4536-9.0654-.4536-2.51-.0282-5.168.5672-5.788 4.3089zm-19.88 4.536h4.843l1.3-7.9377a38.9924 38.9924 0 0 0 4.1046.5666c2.569.1424 6.3786.3971 7.4119-6.208.9157-5.67-2.3622-7.1723-5.1974-7.1723h-9.0373zm6.7036-11.3964.8859-5.33h3.75c1.063 0 1.772.5959 1.4469 2.58-.325 2.0133-1.0922 2.75-2.3328 2.75z"/></g></svg>